<?xml version="1.0" encoding="UTF-8"?>
<svg width="200" height="200" viewBox="0 0 200 200" xmlns="http://www.w3.org/2000/svg" role="img" aria-label="License logo">
  <defs>
    <linearGradient id="panel" x1="18%" y1="12%" x2="84%" y2="92%">
      <stop offset="0%" stop-color="#0B5DDB" />
      <stop offset="100%" stop-color="#0C9BE8" />
    </linearGradient>
    <linearGradient id="bolt" x1="0%" y1="0%" x2="100%" y2="100%">
      <stop offset="0%" stop-color="#A7F3FF" />
      <stop offset="100%" stop-color="#E0FBFF" />
    </linearGradient>
    <filter id="shadow" x="-20%" y="-20%" width="140%" height="140%">
      <feDropShadow dx="0" dy="6" stdDeviation="6" flood-color="#0A2A52" flood-opacity="0.22" />
    </filter>
  </defs>

  <rect x="24" y="24" width="152" height="152" rx="38" fill="url(#panel)" filter="url(#shadow)" />

  <path d="M38 78C56 52 83 40 114 40C141 40 163 50 176 64V24H24V94C28 90 32 84 38 78Z" fill="#FFFFFF" opacity="0.08" />

  <g transform="translate(0 2)">
    <path d="M66 96a34 34 0 1 1 68 0" fill="none" stroke="#FFFFFF" stroke-width="10" stroke-linecap="round" opacity="0.95" />
    <rect x="66" y="130" width="68" height="16" rx="8" fill="#FFFFFF" opacity="0.95" />
    <path d="M103 68l-21 40h16l-9 30 33-47h-17l9-23z" fill="url(#bolt)" />
  </g>
</svg>
